<?xml version="1.0" encoding="utf-8"?>
<!-- Generator: Adobe Illustrator 21.1.0, SVG Export Plug-In . SVG Version: 6.00 Build 0)  -->
<svg version="1.1" id="Layer_1" xmlns="http://www.w3.org/2000/svg" xmlns:xlink="http://www.w3.org/1999/xlink" x="0px" y="0px"
	 viewBox="0 0 64 64" style="enable-background:new 0 0 64 64;" xml:space="preserve">
<style type="text/css">
	.st0{fill:#57CEF3;}
	.st1{fill:#0779E4;}
	.st2{fill-rule:evenodd;clip-rule:evenodd;fill:#314A52;}
	.st3{fill:#597380;}
	.st4{fill:#FF6C58;}
	.st5{fill:#FFFFFF;}
</style>
<g id="Battleships">
	<path class="st0" d="M6,12c0-3.3,2.7-6,6-6h40c3.3,0,6,2.7,6,6v40c0,3.3-2.7,6-6,6H12c-3.3,0-6-2.7-6-6V12z"/>
	<path class="st1" d="M8,12c0-2.2,1.8-4,4-4h10V4H12c-4.4,0-8,3.6-8,8v40c0,4.4,3.6,8,8,8h34v-2h6c3.3,0,6-2.7,6-6V32h-2
		c0,11-14.3,20-32,20c-8.8,0-16-2.7-16-6V12z"/>
	<path class="st2" d="M20,4h32c4.4,0,8,3.6,8,8v40c0,4.4-3.6,8-8,8h-8v-4h8c2.2,0,4-1.8,4-4V12c0-2.2-1.8-4-4-4H20V4z"/>
	<path class="st3" d="M44,40l-0.5,0.5C41.3,42.7,38.2,44,35,44H14c-1.1,0-2-0.9-2-2v-4c0-1.1,0.9-2,2-2h21c3.2,0,6.2,1.3,8.5,3.5
		L44,40z M45.8,14.2c-1.1,1.1-1.8,2.7-1.8,4.2V26c0,1.1,0.9,2,2,2h4c1.1,0,2-0.9,2-2v-7.5c0-1.6-0.6-3.1-1.8-4.2L48,12L45.8,14.2z
		 M12,16l0.5,0.5c2.3,2.3,5.3,3.5,8.5,3.5h13c1.1,0,2-0.9,2-2v-4c0-1.1-0.9-2-2-2H21c-3.2,0-6.2,1.3-8.5,3.5L12,16z"/>
	<path class="st4" d="M32,16c0,1.1-0.9,2-2,2c-1.1,0-2-0.9-2-2c0-1.1,0.9-2,2-2C31.1,14,32,14.9,32,16z M48,16c-1.1,0-2,0.9-2,2
		c0,1.1,0.9,2,2,2c1.1,0,2-0.9,2-2C50,16.9,49.1,16,48,16z M26,38c-1.1,0-2,0.9-2,2c0,1.1,0.9,2,2,2c1.1,0,2-0.9,2-2
		C28,38.9,27.1,38,26,38z M18,38c-1.1,0-2,0.9-2,2c0,1.1,0.9,2,2,2c1.1,0,2-0.9,2-2C20,38.9,19.1,38,18,38z"/>
	<path class="st5" d="M32,26c0,1.1-0.9,2-2,2c-1.1,0-2-0.9-2-2c0-1.1,0.9-2,2-2C31.1,24,32,24.9,32,26z M22,24c-1.1,0-2,0.9-2,2
		c0,1.1,0.9,2,2,2c1.1,0,2-0.9,2-2C24,24.9,23.1,24,22,24z M50,32c-1.1,0-2,0.9-2,2c0,1.1,0.9,2,2,2c1.1,0,2-0.9,2-2
		C52,32.9,51.1,32,50,32z M50,48c-1.1,0-2,0.9-2,2c0,1.1,0.9,2,2,2c1.1,0,2-0.9,2-2C52,48.9,51.1,48,50,48z"/>
</g>
</svg>
