<?xml version="1.0" encoding="UTF-8"?>
<!DOCTYPE svg PUBLIC "-//W3C//DTD SVG 1.1//EN" "http://www.w3.org/Graphics/SVG/1.1/DTD/svg11.dtd">
<!-- Creator: CorelDRAW -->
<svg xmlns="http://www.w3.org/2000/svg" xml:space="preserve" width="6.82666in" height="6.82666in" style="shape-rendering:geometricPrecision; text-rendering:geometricPrecision; image-rendering:optimizeQuality; fill-rule:evenodd; clip-rule:evenodd"
viewBox="0 0 6.82666 6.82666"
 xmlns:xlink="http://www.w3.org/1999/xlink">
 <defs>
  <style type="text/css">
   <![CDATA[
    .fil6 {fill:none}
    .fil3 {fill:#212121}
    .fil4 {fill:#9E6B0B}
    .fil1 {fill:#AD750E}
    .fil5 {fill:#FFFFFE}
    .fil2 {fill:#6D4C41;fill-rule:nonzero}
    .fil0 {fill:#757575;fill-rule:nonzero}
   ]]>
  </style>
 </defs>
 <g id="Layer_x0020_1">
  <metadata id="CorelCorpID_0Corel-Layer"/>
  <g id="_256024376">
   <g>
    <path id="_256027472" class="fil0" d="M2.8325 3.83343c0,-0.0120551 -0.00977165,-0.0218268 -0.0218268,-0.0218268 -0.0120551,0 -0.0218268,0.00977165 -0.0218268,0.0218268l0 0.220984c0,0.0120551 0.00977165,0.0218268 0.0218268,0.0218268 0.0120551,0 0.0218268,-0.00977165 0.0218268,-0.0218268l0 -0.220984z"/>
    <path id="_256027064" class="fil0" d="M2.1757 3.83343c0,-0.0120551 -0.00977165,-0.0218268 -0.0218268,-0.0218268 -0.0120512,0 -0.0218268,0.00977165 -0.0218268,0.0218268l0 0.220984c0,0.0120551 0.00977559,0.0218268 0.0218268,0.0218268 0.0120551,0 0.0218268,-0.00977165 0.0218268,-0.0218268l0 -0.220984z"/>
    <path id="_256027424" class="fil0" d="M2.39463 3.83343c0,-0.0120551 -0.00977165,-0.0218268 -0.0218268,-0.0218268 -0.0120551,0 -0.0218268,0.00977165 -0.0218268,0.0218268l0 0.220984c0,0.0120551 0.00977165,0.0218268 0.0218268,0.0218268 0.0120551,0 0.0218268,-0.00977165 0.0218268,-0.0218268l0 -0.220984z"/>
    <path id="_256027376" class="fil0" d="M2.61356 3.83343c0,-0.0120551 -0.00977165,-0.0218268 -0.0218268,-0.0218268 -0.0120512,0 -0.0218268,0.00977165 -0.0218268,0.0218268l0 0.220984c0,0.0120551 0.00977559,0.0218268 0.0218268,0.0218268 0.0120551,0 0.0218268,-0.00977165 0.0218268,-0.0218268l0 -0.220984z"/>
    <path id="_256027544" class="fil0" d="M1.95814 3.85526l0.0731378 0 0.259799 0 0.259795 0 0.259799 0c0.0120551,0 0.0218268,-0.00977165 0.0218268,-0.0218268 0,-0.0120551 -0.00977165,-0.0218268 -0.0218268,-0.0218268l-0.259799 0 -0.259795 0 -0.259799 0 -0.0731378 0 0 0.0436535z"/>
   </g>
   <g>
    <path id="_256027496" class="fil0" d="M1.95838 3.27506c0,-0.0120512 -0.00977165,-0.0218268 -0.0218268,-0.0218268 -0.0120512,0 -0.0218228,0.00977559 -0.0218228,0.0218268l0 0.220984c0,0.0120551 0.00977165,0.0218268 0.0218228,0.0218268 0.0120551,0 0.0218268,-0.00977165 0.0218268,-0.0218268l0 -0.220984z"/>
    <path id="_256026272" class="fil0" d="M1.17899 3.27506c0,-0.0120512 -0.00977165,-0.0218268 -0.0218268,-0.0218268 -0.0120512,0 -0.0218228,0.00977559 -0.0218228,0.0218268l0 0.220984c0,0.0120551 0.00977165,0.0218268 0.0218228,0.0218268 0.0120551,0 0.0218268,-0.00977165 0.0218268,-0.0218268l0 -0.220984z"/>
    <path id="_256026680" class="fil0" d="M1.43879 3.27506c0,-0.0120512 -0.00977165,-0.0218268 -0.0218268,-0.0218268 -0.0120551,0 -0.0218268,0.00977559 -0.0218268,0.0218268l0 0.220984c0,0.0120551 0.00977165,0.0218268 0.0218268,0.0218268 0.0120551,0 0.0218268,-0.00977165 0.0218268,-0.0218268l0 -0.220984z"/>
    <path id="_256026464" class="fil0" d="M1.69859 3.27506c0,-0.0120512 -0.00977559,-0.0218268 -0.0218268,-0.0218268 -0.0120551,0 -0.0218268,0.00977559 -0.0218268,0.0218268l0 0.220984c0,0.0120551 0.00977165,0.0218268 0.0218268,0.0218268 0.0120512,0 0.0218268,-0.00977165 0.0218268,-0.0218268l0 -0.220984z"/>
    <path id="_256026440" class="fil0" d="M0.875539 3.49604c0,0.0120551 0.00977165,0.0218268 0.0218268,0.0218268 0.0120512,0 0.0218268,-0.00977165 0.0218268,-0.0218268l0 -0.199157 0.237969 0 0.259799 0 0.259799 0 0.259795 0c0.0120551,0 0.0218268,-0.00977165 0.0218268,-0.0218268 0,-0.0120512 -0.00977165,-0.0218268 -0.0218268,-0.0218268l-0.259795 0 -0.259799 0 -0.259799 0 -0.259795 0c-0.0120551,0 -0.0218268,0.00977559 -0.0218268,0.0218268l0 0.220984z"/>
   </g>
   <polygon id="_256026824" class="fil1" points="0.876165,3.49359 1.95814,3.49359 1.95814,4.56298 0.876165,4.56298 0.856012,4.46085 "/>
   <path id="_256026392" class="fil2" d="M4.00739 4.05902c0,-0.0525591 -0.0222953,-0.0951693 -0.0497913,-0.0951693 -0.0275,0 -0.0497953,0.0426102 -0.0497953,0.0951693l0 0.61187c0,0.0525591 0.0222953,0.0951693 0.0497953,0.0951693 0.0274961,0 0.0497913,-0.0426102 0.0497913,-0.0951693l0 -0.61187z"/>
   <polygon id="_256026344" class="fil2" points="3.90956,2.21024 3.90956,1.48371 3.96744,1.48371 3.96744,2.21024 "/>
   <polygon id="_256025408" class="fil3" points="4.37191,1.57321 3.90956,1.75344 3.90956,1.39298 "/>
   <path id="_256025816" class="fil1" d="M5.94796 4.64526l-0.00220866 0c-0.0690945,0.274693 -0.291654,0.489075 -0.600138,0.643421 -1.11777,0.234551 -3.10526,0.14726 -3.86695,0 -0.43587,-0.218087 -0.700024,-0.556252 -0.602402,-1.01474 0.615154,0.259264 3.97928,0.515748 4.39914,0.0271417 0.26189,-0.174594 0.178004,-0.69485 -3.93701e-006,-0.785669 0.465386,0.0757992 0.792925,0.685894 0.672563,1.12984z"/>
   <path id="_256025600" class="fil3" d="M2.9308 2.21024l1.8309 0c0,0 0.732358,1.42733 0,1.82381 -0.294453,0 -2.0244,0.11628 -1.88569,0.000228346 0.408268,-0.341618 0.11737,-1.31586 0.0547953,-1.82404z"/>
   <path id="_256025336" class="fil4" d="M0.856012 4.37889c-0.0174685,0.221543 0.0556929,0.366693 0.0708031,0.401094 0.0937598,0.213406 0.295799,0.380587 0.551846,0.508701 0.761697,0.14726 2.74918,0.234551 3.86695,0 0.216193,-0.108169 0.511953,-0.30261 0.600291,-0.633602 0.0379764,-0.134445 0.0245472,-0.228472 0.027122,-0.240413 -0.296516,0.454803 -0.930421,0.654 -1.68737,0.64915 -1.70463,-0.0109213 -2.40107,0.0377126 -3.42964,-0.684929z"/>
   <path id="_256026008" class="fil5" d="M4.14319 2.88318c0,0.0281378 -0.022815,0.0509449 -0.0509449,0.0509449 -0.0281378,0 -0.0509449,-0.0228071 -0.0509449,-0.0509449 0,-0.0281339 0.0228071,-0.0509409 0.0509449,-0.0509409 0.0281299,0 0.0509449,0.0228071 0.0509449,0.0509409zm0.0116063 0.111976c0.237748,-0.373713 -0.551559,-0.373713 -0.313811,0 0.063874,0.0564567 0.0502677,0.164535 0.0502677,0.164535l0.0305197 0 0 -0.0443346c0,-0.00840551 0.00681102,-0.0152165 0.0152087,-0.0152165 0.00840551,0 0.0152165,0.00681102 0.0152165,0.0152165l0 0.0443346 0.0304764 0 0 -0.0443346c0,-0.00840551 0.00681102,-0.0152165 0.0152165,-0.0152165 0.00840157,0 0.0152126,0.00681102 0.0152126,0.0152165l0 0.0443346 0.0304803 0 0 -0.0443346c0,-0.00840551 0.00681102,-0.0152165 0.0152165,-0.0152165 0.00839764,0 0.0152126,0.00681102 0.0152126,0.0152165l0 0.0443346 0.0305157 0c0,0 -0.0136102,-0.108079 0.0502677,-0.164535zm-0.200311 -0.111976c0,0.0281378 -0.022811,0.0509449 -0.0509449,0.0509449 -0.0281339,0 -0.0509449,-0.0228071 -0.0509449,-0.0509449 0,-0.0281339 0.022811,-0.0509409 0.0509449,-0.0509409 0.0281339,0 0.0509449,0.0228071 0.0509449,0.0509409z"/>
   <path id="_256025504" class="fil5" d="M4.28031 3.24341c0,0 0.0058189,-0.0684606 -0.0536575,-0.0384921 0,0 -0.0233268,-0.107311 -0.0711535,-0.0524921 -0.0363976,0.0563386 -0.0926614,0.119118 -0.15761,0.166933 -0.0649449,-0.047815 -0.121213,-0.110594 -0.15761,-0.166933 -0.0478268,-0.0548189 -0.0711496,0.0524921 -0.0711496,0.0524921 -0.0594843,-0.0299685 -0.0536575,0.0384921 -0.0536575,0.0384921 0.00816142,0.086311 0.106142,0.0536535 0.106142,0.0536535 0.046,0.00468504 0.0923071,0.0229961 0.135965,0.0492559 -0.0436575,0.0262559 -0.0899646,0.044563 -0.135965,0.049252 0,0 -0.0979803,-0.0326575 -0.106142,0.0536575 0,0 -0.00582677,0.0684606 0.0536575,0.0384921 0,0 0.0233228,0.107311 0.0711496,0.0524843 0.0363976,-0.0563307 0.0926654,-0.119114 0.15761,-0.166925 0.0649488,0.047811 0.121209,0.110594 0.15761,0.166925 0.0478268,0.0548268 0.0711535,-0.0524843 0.0711535,-0.0524843 0.0594764,0.0299685 0.0536575,-0.0384921 0.0536575,-0.0384921 -0.00816535,-0.086315 -0.106146,-0.0536575 -0.106146,-0.0536575 -0.0460039,-0.00468898 -0.0923071,-0.0229961 -0.135961,-0.049252 0.0436535,-0.0262598 0.0899567,-0.0445709 0.135961,-0.0492559 0,0 0.0979803,0.0326575 0.106146,-0.0536535z"/>
   <rect id="_256024952" class="fil1" x="1.87084" y="4.0392" width="0.960261" height="0.698372"/>
   <g>
    <rect id="_256024808" class="fil5" x="1.0306" y="3.63048" width="0.146826" height="0.146826"/>
    <rect id="_256024736" class="fil5" x="1.33366" y="3.63048" width="0.146826" height="0.146826"/>
    <rect id="_256024712" class="fil5" x="1.63672" y="3.63048" width="0.146826" height="0.146826"/>
   </g>
   <g>
    <rect id="_256025216" class="fil5" x="2.01364" y="4.15763" width="0.140078" height="0.140078"/>
    <rect id="_256025168" class="fil5" x="2.30277" y="4.15763" width="0.140078" height="0.140078"/>
    <rect id="_256023992" class="fil5" x="2.5919" y="4.15763" width="0.140078" height="0.140078"/>
   </g>
  </g>
 </g>
 <rect class="fil6" width="6.82666" height="6.82666"/>
</svg>
